<?xml version="1.0" encoding="UTF-8"?>
<svg id="_图层_1" xmlns="http://www.w3.org/2000/svg" version="1.1" viewBox="0 0 64 64">
  <!-- Generator: Adobe Illustrator 30.0.0, SVG Export Plug-In . SVG Version: 2.1.1 Build 123)  -->
  <defs>
    <style>
      .st0 {
        fill: #333;
      }

      .st1 {
        fill: #ccc;
      }
    </style>
  </defs>
  <path class="st0" d="M44.98,39.02c-.21.13-.46.2-.73.18-.66-.04-1.17-.63-1.12-1.29.28-3.78-.65-7.47-2.67-10.69s-4.95-5.65-8.47-7.05c-.62-.24-.93-.95-.67-1.57.24-.62.95-.93,1.57-.67,4,1.59,7.33,4.36,9.62,8.02s3.35,7.85,3.04,12.14c-.03.4-.24.74-.56.94ZM38.73,39.46c-.21.13-.46.2-.73.18-.66-.04-1.17-.63-1.12-1.29.2-2.72-.46-5.37-1.92-7.67s-3.55-4.06-6.08-5.07c-.62-.24-.93-.95-.67-1.57.24-.62.95-.93,1.57-.67,3.01,1.19,5.51,3.28,7.23,6.03s2.52,5.91,2.29,9.13c-.03.4-.24.74-.56.94Z"/>
  <path class="st1" d="M24.06,37.52c1.1,1.77,3.43,2.3,5.2,1.19,1.77-1.1,2.3-3.43,1.19-5.2h0c-1.1-1.77-3.43-2.31-5.2-1.19-1.77,1.1-2.3,3.43-1.19,5.2h0Z"/>
  <path class="st0" d="M29.81,39.58c-2.24,1.41-5.22.73-6.64-1.51s-.73-5.22,1.51-6.64,5.22-.73,6.64,1.51c1.41,2.24.73,5.22-1.51,6.64ZM25.8,33.19c-1.28.81-1.67,2.5-.86,3.78s2.5,1.67,3.78.86,1.67-2.5.86-3.78-2.5-1.67-3.78-.86Z"/>
  <path class="st0" d="M32.56,54.5c-6.01,0-11.66-2.34-15.91-6.59-4.25-4.25-6.59-9.9-6.59-15.91s2.34-11.66,6.59-15.91c4.25-4.25,9.9-6.59,15.91-6.59s11.66,2.34,15.91,6.59c4.25,4.25,6.59,9.9,6.59,15.91s-2.34,11.66-6.59,15.91c-4.25,4.25-9.9,6.59-15.91,6.59ZM32.56,11.92c-5.37,0-10.41,2.09-14.2,5.88-3.79,3.79-5.88,8.83-5.88,14.2s2.09,10.41,5.88,14.2c3.79,3.79,8.83,5.88,14.2,5.88s10.41-2.09,14.2-5.88c3.79-3.8,5.88-8.83,5.88-14.2s-2.09-10.41-5.88-14.2c-3.8-3.79-8.83-5.88-14.2-5.88Z"/>
</svg>