<?xml version="1.0" encoding="UTF-8"?>
<svg id="_图层_1" data-name="图层_1" xmlns="http://www.w3.org/2000/svg" version="1.1" viewBox="0 0 64 64">
  <!-- Generator: Adobe Illustrator 30.0.0, SVG Export Plug-In . SVG Version: 2.1.1 Build 123)  -->
  <defs>
    <style>
      .st0 {
        fill: #333;
      }

      .st1 {
        fill: #ccc;
      }
    </style>
  </defs>
  <path class="st0" d="M32.44,54.23c-6.01,0-11.66-2.34-15.91-6.59-4.25-4.25-6.59-9.9-6.59-15.91s2.34-11.66,6.59-15.91,9.9-6.59,15.91-6.59,11.66,2.34,15.91,6.59,6.59,9.9,6.59,15.91-2.34,11.66-6.59,15.91c-4.25,4.25-9.9,6.59-15.91,6.59ZM32.44,11.6c-5.38,0-10.43,2.09-14.24,5.9s-5.9,8.86-5.9,14.24,2.09,10.43,5.9,14.24c3.8,3.8,8.86,5.9,14.24,5.9s10.43-2.09,14.24-5.9c3.8-3.8,5.9-8.86,5.9-14.24s-2.09-10.43-5.9-14.24-8.86-5.9-14.24-5.9Z"/>
  <path class="st0" d="M32.44,44.48c-1.19,0-2.33-.45-3.2-1.26-.87-.81-1.4-1.91-1.49-3.1-.21-2.78-.32-5.61-.32-8.39,0-.65.53-1.18,1.18-1.18s1.18.53,1.18,1.18c0,2.73.1,5.49.31,8.22.09,1.21,1.12,2.17,2.34,2.17s2.24-.95,2.34-2.17c.41-5.45.41-10.98,0-16.43-.09-1.21-1.12-2.17-2.34-2.17s-2.24.95-2.34,2.17c-.05.65-.62,1.14-1.27,1.09-.65-.05-1.14-.62-1.09-1.27.09-1.19.62-2.29,1.49-3.1.87-.81,2.01-1.26,3.2-1.26s2.33.45,3.2,1.26c.87.81,1.4,1.91,1.49,3.1.42,5.57.42,11.22,0,16.79-.09,1.19-.62,2.29-1.49,3.1-.87.81-2.01,1.26-3.2,1.26h0Z"/>
  <path class="st1" d="M20.87,31.73c0-1.84,1.42-3.38,3.26-3.52,5.53-.42,11.08-.42,16.61,0,1.84.14,3.26,1.67,3.26,3.52s-1.42,3.38-3.26,3.52c-5.53.42-11.08.42-16.61,0-1.84-.14-3.26-1.67-3.26-3.52Z"/>
  <path class="st0" d="M32.44,36.74c-2.8,0-5.61-.11-8.39-.32-1.19-.09-2.29-.62-3.1-1.49-.81-.87-1.26-2.01-1.26-3.2s.45-2.33,1.26-3.2c.81-.87,1.91-1.4,3.1-1.49,5.57-.42,11.22-.42,16.79,0,1.19.09,2.29.62,3.1,1.49.81.87,1.26,2.01,1.26,3.2s-.45,2.33-1.26,3.2c-.81.87-1.91,1.4-3.1,1.49-2.79.21-5.59.32-8.39.32h0ZM32.44,29.08c-2.74,0-5.49.1-8.22.31-1.21.09-2.17,1.12-2.17,2.34s.95,2.24,2.17,2.34c5.45.41,10.98.41,16.43,0,1.21-.09,2.17-1.12,2.17-2.34s-.95-2.24-2.17-2.34c-2.73-.21-5.47-.31-8.22-.31h0Z"/>
</svg>