<?xml version="1.0" encoding="UTF-8"?>
<svg id="_图层_1" xmlns="http://www.w3.org/2000/svg" version="1.1" viewBox="0 0 64 64">
  <!-- Generator: Adobe Illustrator 30.0.0, SVG Export Plug-In . SVG Version: 2.1.1 Build 123)  -->
  <defs>
    <style>
      .st0 {
        display: none;
      }

      .st0, .st1 {
        fill: #333;
      }

      .st2 {
        fill: #ccc;
      }
    </style>
  </defs>
  <path class="st1" d="M32.59,54.51c-4.15,0-7.26-.32-9.8-1.01-2.78-.75-4.89-1.97-6.47-3.74-1.57-1.75-2.65-4.06-3.3-7.09-.6-2.77-.88-6.16-.88-10.7s.28-7.93.88-10.69c.66-3.02,1.74-5.33,3.31-7.06,1.59-1.75,3.7-2.97,6.47-3.71,2.53-.68,5.64-1,9.79-1s7.27.31,9.81,1c2.79.74,4.91,1.95,6.51,3.71,1.58,1.74,2.67,4.04,3.34,7.06.61,2.75.9,6.15.9,10.69s-.29,7.93-.9,10.71c-.66,3.02-1.76,5.35-3.33,7.09-1.6,1.77-3.72,2.99-6.51,3.74-2.54.69-5.66,1.01-9.81,1.01h-.01ZM32.59,11.87c-3.94,0-6.86.29-9.19.91s-4.07,1.61-5.35,3.01c-1.29,1.43-2.19,3.38-2.75,5.99-.57,2.58-.83,5.82-.83,10.18,0,8.56,1.07,13.42,3.59,16.22,1.28,1.41,3.02,2.41,5.35,3.04s5.25.93,9.18.93,6.86-.3,9.2-.93c2.34-.63,4.09-1.63,5.37-3.04,2.54-2.81,3.62-7.66,3.62-16.22s-1.08-13.38-3.62-16.18c-1.29-1.4-3.04-2.39-5.37-3.02-2.34-.62-5.25-.91-9.2-.91h0Z"/>
  <path class="st0" d="M32.62,49.01c-4.78,0-7.92-.59-10.18-1.92-.56-.33-.75-1.05-.42-1.61s1.05-.75,1.61-.42c1.89,1.1,4.66,1.6,9,1.6s7.13-.49,9.03-1.6c.56-.32,1.28-.14,1.61.42.32.56.14,1.28-.42,1.61-2.27,1.33-5.42,1.92-10.2,1.92,0,0-.02,0-.02,0Z"/>
  <path class="st1" d="M32.47,36.04c-.63,0-1.15-.63-1.15-1.4v-16.99c0-.77.51-1.4,1.15-1.4s1.15.63,1.15,1.4v16.99c0,.77-.51,1.4-1.15,1.4Z"/>
  <path class="st1" d="M32.47,37.69c-.59,0-1.17-.25-1.65-.74l-6.24-6.43c-.48-.5-.55-1.38-.14-1.98.41-.59,1.14-.66,1.62-.17l6.24,6.43c.1.1.24.1.33,0l6.24-6.43c.48-.5,1.21-.43,1.62.17.41.59.34,1.48-.14,1.98l-6.24,6.43c-.47.49-1.06.74-1.65.74h.01Z"/>
  <path class="st2" d="M32.46,41.06c-3.99,0-7.37-.21-10.26-.71-3.96-.69-5.69,4.83-2.05,6.52,2.9,1.34,6.9,1.85,12.32,1.85s9.44-.51,12.37-1.87c3.64-1.68,1.91-7.2-2.05-6.52-2.9.5-6.31.72-10.33.72h0Z"/>
  <path class="st1" d="M32.47,49.88c-5.93,0-9.87-.6-12.81-1.96-2.15-1-3.16-3.27-2.47-5.54.71-2.28,2.85-3.59,5.2-3.18,2.7.47,5.99.7,10.07.7s7.42-.23,10.13-.71c2.35-.41,4.49.9,5.2,3.18.71,2.27-.3,4.56-2.45,5.55-2.95,1.36-6.91,1.97-12.85,1.97h-.01ZM21.53,41.46c-1.17,0-1.85.84-2.1,1.62-.27.87-.12,2.11,1.2,2.72,2.58,1.19,6.34,1.75,11.83,1.75s9.28-.56,11.88-1.75c1.33-.61,1.48-1.84,1.2-2.72-.28-.88-1.11-1.82-2.56-1.58-2.85.49-6.29.74-10.53.74s-7.63-.24-10.46-.73c-.16-.03-.32-.04-.46-.04h0Z"/>
</svg>