<?xml version="1.0" encoding="UTF-8"?>
<svg id="_图层_1" xmlns="http://www.w3.org/2000/svg" version="1.1" viewBox="0 0 64 64">
  <!-- Generator: Adobe Illustrator 29.6.1, SVG Export Plug-In . SVG Version: 2.1.1 Build 9)  -->
  <defs>
    <style>
      .st0 {
        fill: #333;
      }

      .st1 {
        fill: #ccc;
      }
    </style>
  </defs>
  <path class="st0" d="M32.22,52.63c-3.86,0-6.76-.27-9.11-.85-2.58-.64-4.55-1.68-6.03-3.18-1.47-1.49-2.49-3.48-3.11-6.08-.56-2.36-.83-5.26-.83-9.13s.26-6.77.83-9.12c.62-2.59,1.64-4.57,3.12-6.06s3.45-2.52,6.03-3.15c2.35-.57,5.25-.84,9.11-.84s6.76.27,9.12.84c2.59.63,4.57,1.66,6.06,3.14,1.49,1.49,2.52,3.47,3.15,6.06.57,2.36.84,5.26.84,9.12s-.27,6.77-.84,9.13c-.63,2.6-1.66,4.58-3.14,6.08-1.49,1.5-3.47,2.54-6.06,3.17-2.36.58-5.26.85-9.13.85h0v.02h0ZM32.22,16.41c-3.68,0-6.42.25-8.59.78-2.18.53-3.81,1.37-5,2.56-1.18,1.19-2.02,2.84-2.54,5.02s-.77,4.92-.77,8.61.24,6.43.77,8.62c.53,2.2,1.36,3.85,2.54,5.05,2.34,2.37,6.4,3.38,13.59,3.38s11.27-1.01,13.63-3.38c2.35-2.36,3.35-6.45,3.35-13.67s-1-11.29-3.35-13.63-6.42-3.35-13.63-3.35h0Z"/>
  <path class="st1" d="M41.56,33.48c0,7.2-1.89,9.12-9.08,9.12s-9.04-1.93-9.04-9.12,1.85-9.08,9.04-9.08,9.08,1.89,9.08,9.08Z"/>
  <path class="st0" d="M32.48,43.54c-1.97,0-3.46-.14-4.67-.44-1.37-.34-2.42-.89-3.21-1.7-1.49-1.51-2.09-3.8-2.09-7.92s.61-6.4,2.1-7.9c1.49-1.51,3.78-2.12,7.89-2.12,1.97,0,3.46.14,4.68.43,1.37.33,2.43.88,3.23,1.68s1.35,1.85,1.68,3.23c.3,1.22.43,2.7.43,4.68s-.14,3.46-.43,4.68c-.33,1.38-.88,2.43-1.68,3.24-.8.8-1.85,1.36-3.23,1.7-1.22.3-2.71.44-4.68.44h0ZM32.48,25.33c-3.51,0-5.47.47-6.56,1.57-1.09,1.1-1.55,3.06-1.55,6.58s.46,5.5,1.55,6.6c1.09,1.11,3.05,1.58,6.55,1.58s5.47-.47,6.58-1.59c1.1-1.11,1.57-3.08,1.57-6.6s-.47-5.48-1.57-6.58-3.07-1.57-6.58-1.57h0Z"/>
  <path class="st0" d="M34.15,38.51c-.65,0-1.31-.28-1.81-.84l-4.65-5.23c-.61-.68-.61-1.79,0-2.47s1.59-.68,2.2,0l4.26,4.79,8.52-9.57c.61-.68,1.59-.68,2.2,0,.61.68.61,1.79,0,2.47l-8.91,10.01c-.5.56-1.15.84-1.81.84h0Z"/>
</svg>